<svg width="375" height="812" viewBox="0 0 375 812" fill="none" xmlns="http://www.w3.org/2000/svg">
<rect width="375" height="812" fill="#91A7FF"/>
<path d="M119.259 372.19V363.65H153.489V396.34H130.249V411.53H154.889V420.07H119.259V387.8H142.499V372.19H119.259ZM173.299 384.16H179.389V392.7H173.299V420.77H162.309V362.25H173.299V384.16ZM225.619 363.65V372.19H218.619V411.53H226.319V420.07H208.539V363.65H225.619ZM230.519 420.77V393.89L222.399 396.69V387.94L230.519 385.14V362.25H240.599V420.77H230.519ZM206.019 367.15V375.69H199.019V411.53H206.019V420.07H188.939V367.15H206.019ZM255.859 420.77H245.709V362.25H255.859V420.77Z" fill="white"/>
<path d="M108.436 440.107C108.436 440.635 108.576 441.021 108.875 441.25C109.156 441.479 109.525 441.584 109.982 441.584C110.756 441.584 111.494 441.566 112.197 441.531C112.883 441.496 113.568 441.408 114.236 441.268C114.5 441.232 114.693 441.127 114.816 440.969C114.922 440.811 114.975 440.635 114.957 440.459C114.939 440.283 114.852 440.107 114.676 439.949C114.5 439.809 114.271 439.738 114.008 439.756C113.516 439.861 113.023 439.949 112.496 439.984C111.969 440.037 111.406 440.055 110.826 440.037C110.773 439.439 110.773 438.859 110.809 438.262C110.844 437.682 110.932 437.102 111.037 436.521C111.02 436.381 110.914 436.258 110.721 436.152C110.51 436.047 110.281 435.959 110.018 435.924C109.719 435.906 109.438 435.924 109.156 435.977C108.875 436.047 108.717 436.17 108.682 436.346C108.576 436.873 108.523 437.471 108.488 438.139C108.453 438.807 108.436 439.475 108.436 440.107ZM110.756 444.854L110.369 448.879C110.334 449.02 110.439 449.143 110.65 449.23C110.861 449.318 111.125 449.371 111.424 449.406C111.723 449.441 112.004 449.406 112.25 449.336C112.496 449.266 112.654 449.16 112.689 448.984L113.076 444.818L114.975 444.748C115.273 444.748 115.484 444.66 115.625 444.467C115.766 444.291 115.836 444.098 115.836 443.887C115.818 443.693 115.748 443.518 115.607 443.342C115.467 443.184 115.273 443.096 115.027 443.096L107.574 443.307C107.346 443.359 107.188 443.465 107.1 443.641C106.994 443.816 106.959 443.992 106.994 444.168C106.994 444.379 107.064 444.572 107.205 444.73C107.346 444.889 107.539 444.959 107.803 444.924L110.756 444.854ZM123.271 436.135L118.684 436.381C118.402 436.416 118.174 436.504 118.033 436.662C117.875 436.82 117.805 436.979 117.805 437.154C117.787 437.365 117.84 437.541 117.98 437.682C118.121 437.822 118.314 437.893 118.578 437.857L122.533 437.629C122.568 437.98 122.586 438.279 122.621 438.561C122.639 438.842 122.656 439.123 122.674 439.404C122.674 439.686 122.674 439.967 122.674 440.248C122.656 440.547 122.639 440.863 122.604 441.197C122.586 441.391 122.691 441.531 122.938 441.619C123.184 441.725 123.447 441.76 123.764 441.76C124.045 441.76 124.326 441.725 124.572 441.619C124.818 441.531 124.959 441.408 124.994 441.232C124.994 440.881 125.012 440.547 125.029 440.23C125.029 439.932 125.029 439.615 125.029 439.299C125.029 438.982 125.012 438.631 124.994 438.262C124.959 437.893 124.924 437.471 124.889 436.979C124.871 436.838 124.818 436.715 124.713 436.609C124.607 436.504 124.484 436.398 124.344 436.328C124.203 436.258 124.027 436.205 123.852 436.17C123.658 436.135 123.465 436.135 123.271 436.135ZM121.021 444.854L120.635 448.879C120.6 449.02 120.705 449.143 120.916 449.23C121.127 449.318 121.391 449.371 121.689 449.406C121.988 449.441 122.27 449.406 122.516 449.336C122.762 449.266 122.92 449.16 122.955 448.984L123.342 444.818L125.24 444.748C125.539 444.748 125.75 444.66 125.891 444.467C126.031 444.291 126.102 444.098 126.102 443.887C126.084 443.693 126.014 443.518 125.873 443.342C125.732 443.184 125.539 443.096 125.293 443.096L117.84 443.307C117.611 443.359 117.453 443.465 117.365 443.641C117.26 443.816 117.225 443.992 117.26 444.168C117.26 444.379 117.33 444.572 117.471 444.73C117.611 444.889 117.805 444.959 118.068 444.924L121.021 444.854ZM127.895 442.639C127.947 443.025 128.123 443.342 128.404 443.588C128.686 443.852 129.055 443.992 129.512 444.01C129.828 444.045 130.162 444.062 130.514 444.045C130.865 444.045 131.234 444.01 131.604 443.975C131.955 443.939 132.324 443.904 132.676 443.834C133.027 443.781 133.344 443.729 133.66 443.658C133.924 443.57 134.1 443.447 134.188 443.271C134.275 443.113 134.293 442.938 134.258 442.762C134.205 442.533 134.082 442.357 133.889 442.234C133.695 442.111 133.467 442.076 133.186 442.146C133.01 442.182 132.799 442.234 132.57 442.27C132.342 442.305 132.113 442.34 131.885 442.357C131.639 442.393 131.41 442.41 131.182 442.428C130.953 442.445 130.742 442.445 130.566 442.445C130.461 442.445 130.373 442.428 130.338 442.375C130.303 442.34 130.268 442.287 130.25 442.217C130.074 441.426 129.951 440.67 129.916 439.949C129.863 439.246 129.863 438.525 129.934 437.787C129.934 437.629 129.811 437.506 129.564 437.4C129.318 437.312 129.037 437.242 128.738 437.207C128.422 437.207 128.141 437.225 127.895 437.295C127.631 437.365 127.508 437.506 127.508 437.682C127.508 438.051 127.508 438.438 127.525 438.859C127.543 439.281 127.561 439.721 127.596 440.16C127.631 440.6 127.666 441.039 127.719 441.461C127.754 441.883 127.824 442.287 127.895 442.639ZM135.418 436.275L135.699 447.033C135.699 447.227 135.822 447.35 136.068 447.402C136.314 447.473 136.596 447.49 136.912 447.455C137.158 447.42 137.404 447.367 137.633 447.279C137.861 447.209 137.984 447.104 137.984 446.963L137.896 441.021L139.725 440.881C140.006 440.881 140.217 440.793 140.357 440.617C140.498 440.441 140.586 440.266 140.586 440.055C140.586 439.861 140.498 439.686 140.357 439.51C140.217 439.352 140.023 439.264 139.777 439.264L137.861 439.387L137.809 436.17C137.809 436.029 137.668 435.924 137.422 435.854C137.176 435.783 136.895 435.766 136.596 435.766C136.279 435.801 136.016 435.854 135.77 435.941C135.523 436.029 135.418 436.135 135.418 436.275ZM145.982 442.639C146.035 443.025 146.211 443.342 146.492 443.588C146.773 443.852 147.143 443.992 147.6 444.01C147.916 444.045 148.25 444.062 148.602 444.045C148.953 444.045 149.322 444.01 149.691 443.975C150.043 443.939 150.412 443.904 150.764 443.834C151.115 443.781 151.432 443.729 151.748 443.658C152.012 443.57 152.188 443.447 152.275 443.271C152.363 443.113 152.381 442.938 152.346 442.762C152.293 442.533 152.17 442.357 151.977 442.234C151.783 442.111 151.555 442.076 151.273 442.146C151.098 442.182 150.887 442.234 150.658 442.27C150.43 442.305 150.201 442.34 149.973 442.357C149.727 442.393 149.498 442.41 149.27 442.428C149.041 442.445 148.83 442.445 148.654 442.445C148.549 442.445 148.461 442.428 148.426 442.375C148.391 442.34 148.355 442.287 148.338 442.217C148.162 441.426 148.039 440.67 148.004 439.949C147.951 439.246 147.951 438.525 148.021 437.787C148.021 437.629 147.898 437.506 147.652 437.4C147.406 437.312 147.125 437.242 146.826 437.207C146.51 437.207 146.229 437.225 145.982 437.295C145.719 437.365 145.596 437.506 145.596 437.682C145.596 438.051 145.596 438.438 145.613 438.859C145.631 439.281 145.648 439.721 145.684 440.16C145.719 440.6 145.754 441.039 145.807 441.461C145.842 441.883 145.912 442.287 145.982 442.639ZM153.506 436.275L153.787 447.033C153.787 447.227 153.91 447.35 154.156 447.402C154.402 447.473 154.684 447.49 155 447.455C155.246 447.42 155.492 447.367 155.721 447.279C155.949 447.209 156.072 447.104 156.072 446.963L155.984 441.021L157.812 440.881C158.094 440.881 158.305 440.793 158.445 440.617C158.586 440.441 158.674 440.266 158.674 440.055C158.674 439.861 158.586 439.686 158.445 439.51C158.305 439.352 158.111 439.264 157.865 439.264L155.949 439.387L155.896 436.17C155.896 436.029 155.756 435.924 155.51 435.854C155.264 435.783 154.982 435.766 154.684 435.766C154.367 435.801 154.104 435.854 153.857 435.941C153.611 436.029 153.506 436.135 153.506 436.275ZM164.879 436.398L160.836 436.715C160.467 436.82 160.221 436.979 160.115 437.225C159.992 437.471 159.957 437.77 159.992 438.156C160.027 438.982 160.045 439.615 160.08 440.037C160.098 440.477 160.115 440.793 160.133 441.004C160.133 441.215 160.15 441.355 160.168 441.426C160.168 441.496 160.186 441.549 160.203 441.619C160.256 442.006 160.414 442.287 160.66 442.48C160.906 442.691 161.258 442.779 161.715 442.779C161.891 442.779 162.137 442.779 162.436 442.779C162.717 442.779 163.033 442.762 163.367 442.727C163.701 442.709 164.035 442.691 164.369 442.656C164.703 442.621 165.02 442.586 165.301 442.516C165.723 442.393 166.021 442.234 166.232 442.023C166.426 441.83 166.531 441.549 166.566 441.197C166.566 440.828 166.566 440.494 166.584 440.195C166.602 439.914 166.619 439.633 166.637 439.352C166.637 439.07 166.654 438.807 166.654 438.525C166.654 438.244 166.654 437.945 166.637 437.594C166.602 437.225 166.426 436.926 166.127 436.68C165.811 436.451 165.406 436.363 164.879 436.398ZM168.395 436.1L168.605 443.359C168.605 443.553 168.729 443.676 168.975 443.729C169.221 443.799 169.484 443.799 169.801 443.764C170.047 443.746 170.293 443.693 170.539 443.605C170.768 443.535 170.891 443.43 170.891 443.289L170.855 440.143L172.719 440.02C172.982 440.02 173.193 439.914 173.334 439.738C173.475 439.562 173.562 439.387 173.562 439.176C173.562 438.982 173.475 438.807 173.334 438.631C173.193 438.455 172.982 438.385 172.736 438.402L170.838 438.525L170.785 435.959C170.785 435.783 170.645 435.66 170.398 435.607C170.135 435.555 169.854 435.537 169.555 435.572C169.256 435.607 168.992 435.678 168.746 435.766C168.5 435.871 168.395 435.977 168.395 436.1ZM166.742 449.248H166.725L167.885 449.195L171.207 449.002C171.471 449.002 171.682 448.914 171.822 448.756C171.963 448.598 172.051 448.422 172.051 448.246C172.051 448.07 171.98 447.895 171.84 447.754C171.699 447.613 171.471 447.543 171.189 447.561L167.621 447.701L167.797 444.432C167.797 444.273 167.691 444.15 167.445 444.045C167.199 443.939 166.936 443.887 166.654 443.852C166.496 443.852 166.338 443.869 166.197 443.869C166.057 443.887 165.916 443.904 165.811 443.939C165.688 443.975 165.582 444.027 165.512 444.098C165.441 444.168 165.406 444.238 165.406 444.326L165.16 448.404C165.143 448.545 165.178 448.686 165.283 448.791C165.371 448.914 165.494 449.002 165.652 449.072C165.793 449.143 165.969 449.195 166.162 449.23C166.355 449.266 166.549 449.283 166.742 449.248ZM162.312 438.086L164.176 437.945C164.193 438.191 164.211 438.438 164.229 438.701C164.246 438.982 164.264 439.246 164.264 439.527V440.336C164.264 440.6 164.246 440.846 164.246 441.057L162.488 441.232C162.453 440.529 162.418 440.002 162.4 439.615C162.365 439.246 162.348 438.965 162.348 438.771C162.33 438.578 162.312 438.438 162.312 438.35C162.312 438.279 162.312 438.191 162.312 438.086ZM178.08 442.762C178.52 442.762 178.959 442.691 179.398 442.533C179.82 442.393 180.225 442.164 180.576 441.883C180.928 441.602 181.209 441.232 181.455 440.811C181.684 440.389 181.824 439.914 181.877 439.369C181.912 438.842 181.859 438.35 181.701 437.928C181.543 437.506 181.314 437.154 181.033 436.855C180.734 436.574 180.383 436.346 179.979 436.205C179.574 436.064 179.152 435.977 178.695 435.977C178.238 435.977 177.781 436.064 177.359 436.223C176.92 436.381 176.533 436.609 176.182 436.891C175.83 437.172 175.549 437.523 175.32 437.945C175.092 438.367 174.951 438.842 174.916 439.369C174.863 439.896 174.898 440.371 175.039 440.793C175.162 441.215 175.355 441.566 175.637 441.848C175.918 442.146 176.252 442.375 176.674 442.533C177.078 442.691 177.553 442.762 178.08 442.762ZM178.502 437.488C178.818 437.488 179.082 437.682 179.258 438.033C179.434 438.385 179.521 438.877 179.504 439.475C179.486 440.002 179.381 440.441 179.17 440.793C178.959 441.145 178.66 441.32 178.291 441.32C178.01 441.32 177.764 441.18 177.553 440.898C177.324 440.617 177.219 440.143 177.254 439.475C177.271 438.807 177.412 438.314 177.658 437.98C177.904 437.664 178.186 437.488 178.502 437.488ZM181.648 444.361C181.191 444.449 180.682 444.502 180.154 444.537C179.627 444.572 179.082 444.59 178.52 444.59C177.957 444.59 177.377 444.59 176.814 444.572C176.252 444.572 175.689 444.555 175.162 444.537C174.898 444.537 174.705 444.625 174.6 444.801C174.494 444.977 174.441 445.152 174.441 445.346C174.441 445.557 174.494 445.732 174.617 445.891C174.723 446.066 174.898 446.154 175.145 446.154C175.707 446.189 176.305 446.207 176.902 446.207C177.5 446.225 178.08 446.225 178.678 446.225C179.258 446.225 179.82 446.189 180.383 446.154C180.945 446.119 181.473 446.049 181.965 445.943C182.193 445.891 182.369 445.768 182.492 445.592C182.598 445.416 182.65 445.223 182.633 445.047C182.598 444.854 182.492 444.678 182.316 444.52C182.141 444.361 181.912 444.309 181.648 444.361ZM183.283 436.275L183.529 447.033C183.529 447.227 183.652 447.35 183.898 447.402C184.145 447.473 184.426 447.49 184.76 447.455C185.023 447.42 185.27 447.367 185.498 447.279C185.727 447.209 185.85 447.104 185.85 446.963L185.639 436.17C185.639 436.029 185.498 435.924 185.252 435.854C185.006 435.783 184.725 435.766 184.443 435.766C184.127 435.801 183.863 435.854 183.635 435.941C183.389 436.029 183.283 436.135 183.283 436.275ZM190.771 441.672L191.334 444.959C191.404 445.275 191.58 445.504 191.861 445.645C192.125 445.803 192.441 445.873 192.828 445.873C193.145 445.873 193.496 445.873 193.883 445.838C194.27 445.82 194.639 445.785 195.025 445.75C195.412 445.715 195.781 445.68 196.133 445.627C196.484 445.592 196.818 445.539 197.1 445.469C197.311 445.416 197.469 445.293 197.557 445.117C197.627 444.941 197.68 444.801 197.68 444.66C197.68 444.414 197.592 444.221 197.416 444.062C197.24 443.922 197.012 443.869 196.713 443.922H196.73L193.479 444.256L193.074 441.971L193.777 441.812C194.041 441.76 194.305 441.707 194.568 441.637C194.832 441.566 195.096 441.514 195.342 441.443C195.588 441.391 195.799 441.338 196.01 441.268C196.361 441.18 196.643 441.074 196.854 440.934C197.064 440.811 197.188 440.635 197.223 440.389L197.504 437.541C197.504 437.436 197.486 437.312 197.416 437.172C197.346 437.031 197.205 436.908 197.012 436.768C196.871 436.662 196.713 436.609 196.502 436.592C196.291 436.574 196.098 436.574 195.904 436.592C195.271 436.627 194.744 436.662 194.357 436.68C193.953 436.697 193.619 436.715 193.373 436.715C193.127 436.715 192.916 436.732 192.758 436.732C192.6 436.732 192.459 436.732 192.318 436.732C192.02 436.75 191.809 436.838 191.668 437.014C191.527 437.189 191.475 437.365 191.475 437.559C191.475 437.77 191.545 437.963 191.686 438.121C191.826 438.279 192.055 438.35 192.354 438.314L195.148 438.209L194.938 439.791L191.932 440.459C191.598 440.512 191.299 440.635 191.053 440.828C190.807 441.039 190.701 441.32 190.771 441.672ZM199.016 436.275L199.297 447.033C199.297 447.227 199.42 447.35 199.666 447.402C199.912 447.473 200.193 447.49 200.51 447.455C200.756 447.42 201.002 447.367 201.23 447.279C201.459 447.209 201.582 447.104 201.582 446.963L201.494 441.021L203.322 440.881C203.604 440.881 203.814 440.793 203.955 440.617C204.096 440.441 204.184 440.266 204.184 440.055C204.184 439.861 204.096 439.686 203.955 439.51C203.814 439.352 203.621 439.264 203.375 439.264L201.459 439.387L201.406 436.17C201.406 436.029 201.266 435.924 201.02 435.854C200.773 435.783 200.492 435.766 200.193 435.766C199.877 435.801 199.613 435.854 199.367 435.941C199.121 436.029 199.016 436.135 199.016 436.275ZM206.768 437.471C206.504 437.523 206.293 437.594 206.152 437.699C205.994 437.805 205.871 437.91 205.801 438.033C205.73 438.174 205.678 438.314 205.66 438.473C205.625 438.631 205.625 438.789 205.643 438.947C205.678 439.65 205.73 440.389 205.783 441.162C205.836 441.936 205.906 442.639 206.012 443.271C206.082 443.658 206.275 443.939 206.557 444.115C206.838 444.291 207.189 444.396 207.646 444.396C208.297 444.414 208.807 444.396 209.176 444.326C209.545 444.256 209.861 444.221 210.143 444.186C210.354 444.309 210.635 444.379 211.021 444.396C211.479 444.432 211.9 444.414 212.322 444.361C212.744 444.309 213.166 444.221 213.588 444.115H213.57C213.816 444.062 213.992 443.957 214.062 443.781C214.133 443.605 214.15 443.447 214.115 443.271C214.045 443.078 213.904 442.902 213.729 442.762C213.535 442.621 213.289 442.586 212.99 442.656C212.691 442.762 212.428 442.814 212.217 442.85C211.988 442.885 211.812 442.885 211.689 442.85C211.637 442.674 211.602 442.428 211.566 442.146C211.531 441.865 211.496 441.584 211.461 441.268C211.426 440.951 211.408 440.652 211.391 440.336C211.373 440.02 211.355 439.738 211.355 439.492V438.719L212.973 438.561C213.148 438.543 213.307 438.455 213.43 438.297C213.553 438.156 213.623 437.98 213.623 437.805C213.623 437.629 213.553 437.453 213.43 437.312C213.289 437.172 213.078 437.084 212.779 437.084L206.768 437.471ZM209.545 442.744C209.369 442.832 209.176 442.885 208.93 442.92C208.684 442.955 208.438 442.955 208.209 442.92C208.068 442.393 207.98 441.725 207.945 440.898C207.91 440.529 207.893 440.178 207.893 439.844C207.875 439.51 207.875 439.193 207.875 438.912C207.91 438.912 207.963 438.912 208.068 438.912C208.174 438.912 208.279 438.895 208.42 438.895C208.543 438.895 208.684 438.895 208.824 438.895C208.965 438.895 209.088 438.877 209.193 438.859C209.211 439.51 209.246 440.16 209.316 440.793C209.369 441.426 209.439 442.076 209.545 442.744ZM214.537 441.584L214.66 446.084C214.678 446.26 214.801 446.383 215.029 446.453C215.24 446.523 215.504 446.541 215.82 446.506C216.102 446.471 216.348 446.418 216.594 446.33C216.822 446.26 216.945 446.154 216.945 446.014L216.699 436.521C216.699 436.451 216.646 436.381 216.576 436.328C216.506 436.275 216.4 436.24 216.295 436.205C216.189 436.17 216.066 436.152 215.926 436.152C215.785 436.152 215.645 436.17 215.504 436.17C215.223 436.205 214.977 436.275 214.766 436.381C214.555 436.486 214.449 436.592 214.449 436.732L214.52 440.02L213.201 440.107C212.938 440.143 212.744 440.23 212.639 440.389C212.516 440.547 212.463 440.723 212.498 440.898C212.498 441.092 212.586 441.268 212.744 441.426C212.902 441.584 213.131 441.654 213.447 441.619L214.537 441.584ZM217.508 436.311L217.754 447.033C217.754 447.227 217.859 447.35 218.105 447.402C218.352 447.473 218.633 447.49 218.949 447.455C219.195 447.42 219.441 447.367 219.67 447.279C219.881 447.209 220.004 447.104 220.004 446.963L219.828 436.135C219.828 435.994 219.688 435.889 219.441 435.836C219.195 435.783 218.914 435.766 218.615 435.766C218.316 435.801 218.053 435.871 217.842 435.959C217.613 436.064 217.508 436.17 217.508 436.311ZM226.139 436.732L221.92 436.908C221.621 436.926 221.41 437.014 221.27 437.172C221.129 437.348 221.076 437.523 221.094 437.717C221.094 437.91 221.164 438.086 221.322 438.244C221.463 438.42 221.674 438.49 221.955 438.455L225.172 438.297L224.117 444.854C224.117 445.029 224.205 445.17 224.398 445.275C224.574 445.381 224.803 445.451 225.066 445.486C225.365 445.539 225.664 445.539 225.945 445.469C226.227 445.398 226.385 445.275 226.438 445.064L227.668 437.576C227.668 437.488 227.615 437.383 227.527 437.26C227.439 437.137 227.316 437.031 227.141 436.926C226.877 436.785 226.543 436.715 226.139 436.732ZM229.32 436.275L229.602 447.033C229.602 447.227 229.725 447.35 229.971 447.402C230.217 447.473 230.498 447.49 230.814 447.455C231.061 447.42 231.307 447.367 231.535 447.279C231.764 447.209 231.887 447.104 231.887 446.963L231.799 441.021L233.627 440.881C233.908 440.881 234.119 440.793 234.26 440.617C234.4 440.441 234.488 440.266 234.488 440.055C234.488 439.861 234.4 439.686 234.26 439.51C234.119 439.352 233.926 439.264 233.68 439.264L231.764 439.387L231.711 436.17C231.711 436.029 231.57 435.924 231.324 435.854C231.078 435.783 230.797 435.766 230.498 435.766C230.182 435.801 229.918 435.854 229.672 435.941C229.426 436.029 229.32 436.135 229.32 436.275ZM242.398 442.762C242.838 442.762 243.277 442.691 243.717 442.533C244.139 442.393 244.543 442.164 244.895 441.883C245.246 441.602 245.527 441.232 245.773 440.811C246.002 440.389 246.143 439.914 246.195 439.369C246.23 438.842 246.178 438.35 246.02 437.928C245.861 437.506 245.633 437.154 245.352 436.855C245.053 436.574 244.701 436.346 244.297 436.205C243.893 436.064 243.471 435.977 243.014 435.977C242.557 435.977 242.1 436.064 241.678 436.223C241.238 436.381 240.852 436.609 240.5 436.891C240.148 437.172 239.867 437.523 239.639 437.945C239.41 438.367 239.27 438.842 239.234 439.369C239.182 439.896 239.217 440.371 239.357 440.793C239.48 441.215 239.674 441.566 239.955 441.848C240.236 442.146 240.57 442.375 240.992 442.533C241.396 442.691 241.871 442.762 242.398 442.762ZM242.82 437.488C243.137 437.488 243.4 437.682 243.576 438.033C243.752 438.385 243.84 438.877 243.822 439.475C243.805 440.002 243.699 440.441 243.488 440.793C243.277 441.145 242.979 441.32 242.609 441.32C242.328 441.32 242.082 441.18 241.871 440.898C241.643 440.617 241.537 440.143 241.572 439.475C241.59 438.807 241.73 438.314 241.977 437.98C242.223 437.664 242.504 437.488 242.82 437.488ZM248.129 436.1L248.305 442.92C248.305 443.113 248.428 443.236 248.674 443.289C248.92 443.359 249.184 443.359 249.5 443.324C249.764 443.307 250.01 443.254 250.256 443.166C250.502 443.078 250.625 442.973 250.625 442.85L250.484 435.959C250.484 435.783 250.344 435.678 250.08 435.625C249.816 435.572 249.535 435.555 249.254 435.572C248.955 435.607 248.691 435.678 248.463 435.766C248.234 435.871 248.129 435.977 248.129 436.1ZM245.545 448.562L245.492 448.791C245.439 448.879 245.475 448.984 245.615 449.107C245.738 449.23 245.896 449.336 246.107 449.424C246.371 449.564 246.635 449.6 246.881 449.547C247.127 449.494 247.32 449.354 247.461 449.143L248.217 447.561L249.711 449.002C249.922 449.213 250.15 449.283 250.396 449.213C250.643 449.143 250.854 449.037 251.064 448.861C251.205 448.738 251.311 448.598 251.381 448.439C251.434 448.281 251.416 448.158 251.328 448.053L249.254 446.137C249.166 446.084 249.113 446.031 249.078 445.961C249.043 445.891 249.043 445.82 249.078 445.715L249.57 444.678C249.623 444.555 249.57 444.414 249.43 444.273C249.289 444.133 249.113 444.027 248.902 443.922C248.762 443.869 248.621 443.816 248.48 443.781C248.34 443.746 248.199 443.729 248.076 443.729C247.953 443.729 247.848 443.764 247.76 443.799C247.654 443.834 247.602 443.904 247.584 444.01L246.301 446.805L245.035 445.451L245.492 444.502C245.545 444.396 245.492 444.273 245.334 444.133C245.176 443.992 244.982 443.887 244.771 443.781C244.49 443.641 244.209 443.553 243.928 443.553C243.646 443.553 243.471 443.623 243.4 443.799L241.062 448.492C241.01 448.598 241.045 448.721 241.168 448.861C241.291 449.002 241.449 449.143 241.66 449.248C241.924 449.389 242.205 449.459 242.486 449.459C242.768 449.459 242.979 449.371 243.119 449.16L244.139 447.156L245.545 448.562ZM253.719 437.383C253.455 437.418 253.244 437.471 253.104 437.576C252.945 437.682 252.822 437.822 252.752 437.963C252.664 438.104 252.611 438.262 252.611 438.438C252.594 438.613 252.594 438.771 252.629 438.947C252.646 439.686 252.682 440.424 252.734 441.162C252.787 441.918 252.875 442.586 253.016 443.184C253.068 443.465 253.244 443.676 253.525 443.834C253.807 444.01 254.176 444.098 254.615 444.115C254.914 444.15 255.248 444.15 255.635 444.133C256.004 444.133 256.391 444.115 256.777 444.08C257.164 444.062 257.533 444.027 257.902 443.975C258.254 443.939 258.588 443.869 258.887 443.799C258.992 443.781 259.098 443.729 259.186 443.641C259.273 443.57 259.344 443.482 259.396 443.377C259.449 443.271 259.484 443.166 259.502 443.061C259.52 442.955 259.52 442.867 259.52 442.779C259.484 442.586 259.361 442.445 259.168 442.34C258.975 442.252 258.746 442.252 258.482 442.322C258.271 442.393 258.043 442.428 257.779 442.463C257.498 442.498 257.217 442.533 256.918 442.551C256.619 442.586 256.32 442.586 256.039 442.586C255.758 442.586 255.494 442.586 255.283 442.568L255.02 438.877C255.441 438.842 255.934 438.807 256.514 438.771C257.076 438.754 257.674 438.719 258.271 438.666C258.5 438.648 258.676 438.561 258.799 438.402C258.922 438.244 258.992 438.068 258.992 437.857C258.992 437.682 258.922 437.506 258.799 437.348C258.658 437.207 258.447 437.119 258.148 437.119L253.719 437.383ZM261.119 436.275L261.4 447.033C261.4 447.227 261.523 447.35 261.77 447.402C262.016 447.473 262.297 447.49 262.613 447.455C262.859 447.42 263.105 447.367 263.334 447.279C263.562 447.209 263.686 447.104 263.686 446.963L263.598 441.021L265.426 440.881C265.707 440.881 265.918 440.793 266.059 440.617C266.199 440.441 266.287 440.266 266.287 440.055C266.287 439.861 266.199 439.686 266.059 439.51C265.918 439.352 265.725 439.264 265.479 439.264L263.562 439.387L263.51 436.17C263.51 436.029 263.369 435.924 263.123 435.854C262.877 435.783 262.596 435.766 262.297 435.766C261.98 435.801 261.717 435.854 261.471 435.941C261.225 436.029 261.119 436.135 261.119 436.275Z" fill="white"/>
</svg>
